<svg width="54" height="53" viewBox="0 0 54 53" fill="none" xmlns="http://www.w3.org/2000/svg">
<path d="M43.8553 46.7195C39.2269 50.5616 33.2226 53.0001 26.6865 53.0001C16.9607 53.0001 8.42318 47.7338 3.79492 40.0497L5.52764 32.1994L13.208 30.798C14.9906 36.4534 20.3694 40.603 26.6865 40.603C29.7512 40.603 32.5971 39.6501 34.9425 37.9596L42.3229 39.0661L43.8553 46.7195Z" fill="#59C36A"/>
<path d="M43.8552 46.7195L42.3229 39.0661L34.9425 37.9595C32.5971 39.65 29.7511 40.6029 26.6865 40.6029V53C33.2226 53 39.2269 50.5615 43.8552 46.7195Z" fill="#00A66C"/>
<path d="M12.6133 26.7714C12.6133 28.1852 12.8322 29.5376 13.2075 30.7979L3.79442 40.0496C1.44897 36.1768 0 31.6277 0 26.7714C0 21.9149 1.44897 17.366 3.79442 13.4932L11.3492 14.7711L13.2075 22.7449C12.8322 24.005 12.6133 25.3574 12.6133 26.7714Z" fill="#FFDA2D"/>
<path d="M53.3718 26.7714C53.3718 34.7628 49.6087 41.9246 43.8544 46.7195L34.9417 37.9595C36.7554 36.6685 38.2879 34.9472 39.2886 32.9187H26.6857C25.81 32.9187 25.1221 32.2424 25.1221 31.3819V22.1609C25.1221 21.3002 25.81 20.6241 26.6857 20.6241H51.3703C52.1208 20.6241 52.7776 21.1465 52.9027 21.8842C53.2154 23.4826 53.3718 25.1423 53.3718 26.7714Z" fill="#376AED"/>
<path d="M39.2895 32.9187C38.2888 34.9472 36.7562 36.6685 34.9426 37.9595L43.8552 46.7195C49.6095 41.9246 53.3726 34.7629 53.3726 26.7714C53.3726 25.1423 53.2162 23.4826 52.9034 21.8842C52.7784 21.1465 52.1216 20.6241 51.371 20.6241H26.6865V32.9187H39.2895Z" fill="#376AED"/>
<path d="M44.2931 7.8683C44.3243 8.29861 44.1367 8.69829 43.8553 9.00556L37.1629 15.5525C36.6314 16.1057 35.7557 16.1672 35.1303 15.7061C32.6595 13.8928 29.7512 12.9399 26.6865 12.9399C20.3694 12.9399 14.9906 17.0893 13.208 22.7449L3.79492 13.4932C8.42318 5.80905 16.9607 0.542847 26.6865 0.542847C32.9098 0.542847 38.9767 2.79686 43.7302 6.73105C44.0742 7.00778 44.2618 7.43799 44.2931 7.8683Z" fill="#FF7F23"/>
<path d="M35.1302 15.7061C35.7556 16.1673 36.6312 16.1057 37.1628 15.5525L43.8552 9.00556C44.1367 8.69829 44.3244 8.29872 44.293 7.8683C44.2616 7.43789 44.0741 7.00778 43.7301 6.73105C38.9767 2.79686 32.9098 0.542847 26.6865 0.542847V12.9399C29.7511 12.9399 32.6595 13.8928 35.1302 15.7061Z" fill="#F03800"/>
</svg>
