<svg width="54" height="53" viewBox="0 0 54 53" fill="none" xmlns="http://www.w3.org/2000/svg">
<ellipse cx="27.314" cy="26.7714" rx="26.686" ry="26.2286" fill="#65AFF6"/>
<path d="M21.8136 38.4285C33.0024 38.4285 39.1224 29.4578 39.1224 21.6794C39.1224 21.424 39.1224 21.1701 39.1046 20.9176C40.2951 20.0855 41.3226 19.0526 42.1394 17.8704C41.0305 18.3467 39.8519 18.6595 38.6465 18.7972C39.9156 18.0612 40.8659 16.9049 41.3211 15.5406C40.1261 16.2264 38.82 16.7098 37.4575 16.9695C35.1536 14.5995 31.3005 14.4847 28.8498 16.7141C27.2709 18.1516 26.5993 20.295 27.09 22.3393C22.199 22.1011 17.6417 19.866 14.552 16.1891C12.9375 18.879 13.7633 22.3192 16.4363 24.0465C15.4682 24.0192 14.5209 23.7667 13.6743 23.3105V23.3851C13.6758 26.1869 15.7173 28.6 18.5549 29.1552C17.6594 29.3919 16.7195 29.4263 15.8092 29.2556C16.6053 31.6543 18.89 33.2969 21.4919 33.3443C19.3377 34.9826 16.6765 35.872 13.9367 35.8692C13.4534 35.8677 12.9701 35.8405 12.4883 35.7845C15.271 37.5118 18.5075 38.4285 21.8136 38.4242" fill="white"/>
</svg>
